<svg xmlns="http://www.w3.org/2000/svg" xmlns:xlink="http://www.w3.org/1999/xlink" width="500" zoomAndPan="magnify" viewBox="0 0 375 374.999991" height="500" preserveAspectRatio="xMidYMid meet" version="1.0"><defs><g/></defs><g fill="#000000" fill-opacity="1"><g transform="translate(42.018676, 281.835768)"><g><path d="M 33.15625 0 L 28.859375 0 L 28.859375 -17.40625 L 9.390625 -17.40625 L 9.390625 0 L 5.078125 0 L 5.078125 -36.96875 L 9.390625 -36.96875 L 9.390625 -21.25 L 28.859375 -21.25 L 28.859375 -36.96875 L 33.15625 -36.96875 Z M 33.15625 0 "/></g></g></g><g fill="#000000" fill-opacity="1"><g transform="translate(80.233402, 281.835768)"><g><path d="M 21.5 0 L 20.65625 -3.953125 L 20.453125 -3.953125 C 19.078125 -2.210938 17.703125 -1.035156 16.328125 -0.421875 C 14.953125 0.191406 13.234375 0.5 11.171875 0.5 C 8.429688 0.5 6.28125 -0.207031 4.71875 -1.625 C 3.15625 -3.039062 2.375 -5.050781 2.375 -7.65625 C 2.375 -13.257812 6.851562 -16.195312 15.8125 -16.46875 L 20.515625 -16.609375 L 20.515625 -18.34375 C 20.515625 -20.507812 20.046875 -22.109375 19.109375 -23.140625 C 18.171875 -24.179688 16.675781 -24.703125 14.625 -24.703125 C 12.3125 -24.703125 9.695312 -23.992188 6.78125 -22.578125 L 5.484375 -25.796875 C 6.847656 -26.535156 8.34375 -27.113281 9.96875 -27.53125 C 11.601562 -27.957031 13.238281 -28.171875 14.875 -28.171875 C 18.175781 -28.171875 20.625 -27.4375 22.21875 -25.96875 C 23.8125 -24.507812 24.609375 -22.160156 24.609375 -18.921875 L 24.609375 0 Z M 12.015625 -2.953125 C 14.628906 -2.953125 16.679688 -3.671875 18.171875 -5.109375 C 19.660156 -6.546875 20.40625 -8.550781 20.40625 -11.125 L 20.40625 -13.625 L 16.21875 -13.453125 C 12.875 -13.335938 10.460938 -12.816406 8.984375 -11.890625 C 7.515625 -10.972656 6.78125 -9.546875 6.78125 -7.609375 C 6.78125 -6.097656 7.238281 -4.941406 8.15625 -4.140625 C 9.070312 -3.347656 10.359375 -2.953125 12.015625 -2.953125 Z M 12.015625 -2.953125 "/></g></g></g><g fill="#000000" fill-opacity="1"><g transform="translate(109.039874, 281.835768)"><g><path d="M 17.34375 0.5 C 15.539062 0.5 13.894531 0.164062 12.40625 -0.5 C 10.914062 -1.164062 9.664062 -2.1875 8.65625 -3.5625 L 8.34375 -3.5625 C 8.550781 -1.945312 8.65625 -0.414062 8.65625 1.03125 L 8.65625 12.4375 L 4.453125 12.4375 L 4.453125 -27.71875 L 7.859375 -27.71875 L 8.453125 -23.921875 L 8.65625 -23.921875 C 9.726562 -25.441406 10.976562 -26.535156 12.40625 -27.203125 C 13.84375 -27.878906 15.488281 -28.21875 17.34375 -28.21875 C 21.019531 -28.21875 23.859375 -26.960938 25.859375 -24.453125 C 27.859375 -21.941406 28.859375 -18.421875 28.859375 -13.890625 C 28.859375 -9.335938 27.84375 -5.800781 25.8125 -3.28125 C 23.78125 -0.757812 20.957031 0.5 17.34375 0.5 Z M 16.75 -24.65625 C 13.914062 -24.65625 11.863281 -23.867188 10.59375 -22.296875 C 9.332031 -20.734375 8.6875 -18.242188 8.65625 -14.828125 L 8.65625 -13.890625 C 8.65625 -9.992188 9.300781 -7.207031 10.59375 -5.53125 C 11.894531 -3.851562 13.976562 -3.015625 16.84375 -3.015625 C 19.238281 -3.015625 21.113281 -3.984375 22.46875 -5.921875 C 23.820312 -7.859375 24.5 -10.53125 24.5 -13.9375 C 24.5 -17.394531 23.820312 -20.046875 22.46875 -21.890625 C 21.113281 -23.734375 19.207031 -24.65625 16.75 -24.65625 Z M 16.75 -24.65625 "/></g></g></g><g fill="#000000" fill-opacity="1"><g transform="translate(140.780102, 281.835768)"><g><path d="M 17.34375 0.5 C 15.539062 0.5 13.894531 0.164062 12.40625 -0.5 C 10.914062 -1.164062 9.664062 -2.1875 8.65625 -3.5625 L 8.34375 -3.5625 C 8.550781 -1.945312 8.65625 -0.414062 8.65625 1.03125 L 8.65625 12.4375 L 4.453125 12.4375 L 4.453125 -27.71875 L 7.859375 -27.71875 L 8.453125 -23.921875 L 8.65625 -23.921875 C 9.726562 -25.441406 10.976562 -26.535156 12.40625 -27.203125 C 13.84375 -27.878906 15.488281 -28.21875 17.34375 -28.21875 C 21.019531 -28.21875 23.859375 -26.960938 25.859375 -24.453125 C 27.859375 -21.941406 28.859375 -18.421875 28.859375 -13.890625 C 28.859375 -9.335938 27.84375 -5.800781 25.8125 -3.28125 C 23.78125 -0.757812 20.957031 0.5 17.34375 0.5 Z M 16.75 -24.65625 C 13.914062 -24.65625 11.863281 -23.867188 10.59375 -22.296875 C 9.332031 -20.734375 8.6875 -18.242188 8.65625 -14.828125 L 8.65625 -13.890625 C 8.65625 -9.992188 9.300781 -7.207031 10.59375 -5.53125 C 11.894531 -3.851562 13.976562 -3.015625 16.84375 -3.015625 C 19.238281 -3.015625 21.113281 -3.984375 22.46875 -5.921875 C 23.820312 -7.859375 24.5 -10.53125 24.5 -13.9375 C 24.5 -17.394531 23.820312 -20.046875 22.46875 -21.890625 C 21.113281 -23.734375 19.207031 -24.65625 16.75 -24.65625 Z M 16.75 -24.65625 "/></g></g></g><g fill="#000000" fill-opacity="1"><g transform="translate(172.520329, 281.835768)"><g><path d="M 0.046875 -27.71875 L 4.546875 -27.71875 L 10.625 -11.90625 C 11.957031 -8.300781 12.78125 -5.695312 13.09375 -4.09375 L 13.296875 -4.09375 C 13.515625 -4.957031 13.972656 -6.429688 14.671875 -8.515625 C 15.378906 -10.597656 17.671875 -17 21.546875 -27.71875 L 26.046875 -27.71875 L 14.140625 3.84375 C 12.960938 6.957031 11.582031 9.164062 10 10.46875 C 8.425781 11.78125 6.492188 12.4375 4.203125 12.4375 C 2.921875 12.4375 1.65625 12.296875 0.40625 12.015625 L 0.40625 8.65625 C 1.332031 8.851562 2.367188 8.953125 3.515625 8.953125 C 6.398438 8.953125 8.457031 7.332031 9.6875 4.09375 L 11.234375 0.15625 Z M 0.046875 -27.71875 "/></g></g></g><g fill="#000000" fill-opacity="1"><g transform="translate(198.62065, 281.835768)"><g/></g></g><g fill="#000000" fill-opacity="1"><g transform="translate(212.075466, 281.835768)"><g><path d="M 20.921875 -33.65625 C 16.859375 -33.65625 13.648438 -32.300781 11.296875 -29.59375 C 8.941406 -26.894531 7.765625 -23.191406 7.765625 -18.484375 C 7.765625 -13.648438 8.894531 -9.910156 11.15625 -7.265625 C 13.425781 -4.628906 16.660156 -3.3125 20.859375 -3.3125 C 23.441406 -3.3125 26.382812 -3.773438 29.6875 -4.703125 L 29.6875 -0.9375 C 27.125 0.0195312 23.960938 0.5 20.203125 0.5 C 14.753906 0.5 10.550781 -1.148438 7.59375 -4.453125 C 4.632812 -7.753906 3.15625 -12.445312 3.15625 -18.53125 C 3.15625 -22.34375 3.867188 -25.679688 5.296875 -28.546875 C 6.722656 -31.421875 8.78125 -33.628906 11.46875 -35.171875 C 14.15625 -36.722656 17.320312 -37.5 20.96875 -37.5 C 24.84375 -37.5 28.234375 -36.789062 31.140625 -35.375 L 29.3125 -31.6875 C 26.507812 -33 23.710938 -33.65625 20.921875 -33.65625 Z M 20.921875 -33.65625 "/></g></g></g><g fill="#000000" fill-opacity="1"><g transform="translate(244.751449, 281.835768)"><g><path d="M 8.390625 -27.71875 L 8.390625 -9.734375 C 8.390625 -7.472656 8.90625 -5.785156 9.9375 -4.671875 C 10.96875 -3.566406 12.578125 -3.015625 14.765625 -3.015625 C 17.671875 -3.015625 19.789062 -3.804688 21.125 -5.390625 C 22.46875 -6.972656 23.140625 -9.5625 23.140625 -13.15625 L 23.140625 -27.71875 L 27.34375 -27.71875 L 27.34375 0 L 23.875 0 L 23.265625 -3.71875 L 23.046875 -3.71875 C 22.179688 -2.351562 20.984375 -1.304688 19.453125 -0.578125 C 17.929688 0.140625 16.191406 0.5 14.234375 0.5 C 10.867188 0.5 8.34375 -0.296875 6.65625 -1.890625 C 4.976562 -3.492188 4.140625 -6.054688 4.140625 -9.578125 L 4.140625 -27.71875 Z M 8.390625 -27.71875 "/></g></g></g><g fill="#000000" fill-opacity="1"><g transform="translate(276.542259, 281.835768)"><g><path d="M 17.34375 0.5 C 15.539062 0.5 13.894531 0.164062 12.40625 -0.5 C 10.914062 -1.164062 9.664062 -2.1875 8.65625 -3.5625 L 8.34375 -3.5625 C 8.550781 -1.945312 8.65625 -0.414062 8.65625 1.03125 L 8.65625 12.4375 L 4.453125 12.4375 L 4.453125 -27.71875 L 7.859375 -27.71875 L 8.453125 -23.921875 L 8.65625 -23.921875 C 9.726562 -25.441406 10.976562 -26.535156 12.40625 -27.203125 C 13.84375 -27.878906 15.488281 -28.21875 17.34375 -28.21875 C 21.019531 -28.21875 23.859375 -26.960938 25.859375 -24.453125 C 27.859375 -21.941406 28.859375 -18.421875 28.859375 -13.890625 C 28.859375 -9.335938 27.84375 -5.800781 25.8125 -3.28125 C 23.78125 -0.757812 20.957031 0.5 17.34375 0.5 Z M 16.75 -24.65625 C 13.914062 -24.65625 11.863281 -23.867188 10.59375 -22.296875 C 9.332031 -20.734375 8.6875 -18.242188 8.65625 -14.828125 L 8.65625 -13.890625 C 8.65625 -9.992188 9.300781 -7.207031 10.59375 -5.53125 C 11.894531 -3.851562 13.976562 -3.015625 16.84375 -3.015625 C 19.238281 -3.015625 21.113281 -3.984375 22.46875 -5.921875 C 23.820312 -7.859375 24.5 -10.53125 24.5 -13.9375 C 24.5 -17.394531 23.820312 -20.046875 22.46875 -21.890625 C 21.113281 -23.734375 19.207031 -24.65625 16.75 -24.65625 Z M 16.75 -24.65625 "/></g></g></g><g fill="#000000" fill-opacity="1"><g transform="translate(308.282487, 281.835768)"><g><path d="M 22.328125 -7.5625 C 22.328125 -4.976562 21.363281 -2.988281 19.4375 -1.59375 C 17.519531 -0.195312 14.828125 0.5 11.359375 0.5 C 7.679688 0.5 4.8125 -0.078125 2.75 -1.234375 L 2.75 -5.140625 C 4.082031 -4.460938 5.507812 -3.925781 7.03125 -3.53125 C 8.5625 -3.144531 10.035156 -2.953125 11.453125 -2.953125 C 13.648438 -2.953125 15.335938 -3.300781 16.515625 -4 C 17.691406 -4.707031 18.28125 -5.773438 18.28125 -7.203125 C 18.28125 -8.285156 17.8125 -9.207031 16.875 -9.96875 C 15.945312 -10.738281 14.125 -11.648438 11.40625 -12.703125 C 8.820312 -13.660156 6.988281 -14.492188 5.90625 -15.203125 C 4.820312 -15.921875 4.015625 -16.734375 3.484375 -17.640625 C 2.953125 -18.554688 2.6875 -19.648438 2.6875 -20.921875 C 2.6875 -23.179688 3.601562 -24.960938 5.4375 -26.265625 C 7.269531 -27.566406 9.789062 -28.21875 13 -28.21875 C 15.976562 -28.21875 18.894531 -27.613281 21.75 -26.40625 L 20.265625 -22.984375 C 17.472656 -24.128906 14.953125 -24.703125 12.703125 -24.703125 C 10.710938 -24.703125 9.207031 -24.390625 8.1875 -23.765625 C 7.175781 -23.148438 6.671875 -22.289062 6.671875 -21.1875 C 6.671875 -20.445312 6.859375 -19.816406 7.234375 -19.296875 C 7.617188 -18.773438 8.234375 -18.273438 9.078125 -17.796875 C 9.921875 -17.328125 11.539062 -16.644531 13.9375 -15.75 C 17.226562 -14.550781 19.445312 -13.34375 20.59375 -12.125 C 21.75 -10.914062 22.328125 -9.394531 22.328125 -7.5625 Z M 22.328125 -7.5625 "/></g></g></g><g fill="#000000" fill-opacity="1"><g transform="translate(90.190443, 221.460275)"><g><path d="M 92.90625 0 L 66.765625 0 L 66.765625 -39.234375 L 36.546875 -39.234375 L 36.546875 0 L 10.40625 0 L 10.40625 -96.265625 L 36.546875 -96.265625 L 36.546875 -60.578125 L 66.765625 -60.578125 L 66.765625 -96.265625 L 92.90625 -96.265625 Z M 92.90625 0 "/></g></g></g><g fill="#000000" fill-opacity="1"><g transform="translate(193.482527, 221.460275)"><g><path d="M 53.265625 -76.3125 C 47.078125 -76.3125 42.25 -73.773438 38.78125 -68.703125 C 35.3125 -63.628906 33.578125 -56.640625 33.578125 -47.734375 C 33.578125 -29.210938 40.625 -19.953125 54.71875 -19.953125 C 58.96875 -19.953125 63.085938 -20.539062 67.078125 -21.71875 C 71.078125 -22.90625 75.097656 -24.332031 79.140625 -26 L 79.140625 -4.015625 C 71.109375 -0.460938 62.023438 1.3125 51.890625 1.3125 C 37.359375 1.3125 26.21875 -2.898438 18.46875 -11.328125 C 10.71875 -19.753906 6.84375 -31.929688 6.84375 -47.859375 C 6.84375 -57.828125 8.71875 -66.585938 12.46875 -74.140625 C 16.226562 -81.691406 21.628906 -87.492188 28.671875 -91.546875 C 35.710938 -95.609375 44 -97.640625 53.53125 -97.640625 C 63.9375 -97.640625 73.878906 -95.378906 83.359375 -90.859375 L 75.390625 -70.390625 C 71.835938 -72.054688 68.28125 -73.457031 64.71875 -74.59375 C 61.164062 -75.738281 57.347656 -76.3125 53.265625 -76.3125 Z M 53.265625 -76.3125 "/></g></g></g><g fill="#000000" fill-opacity="1"><g transform="translate(288.010474, 207.94604)"><g><path d="M 5.671875 -10.9375 C 5.671875 -14.976562 6.867188 -18.097656 9.265625 -20.296875 C 11.660156 -22.492188 15.140625 -23.59375 19.703125 -23.59375 C 24.054688 -23.59375 27.394531 -22.492188 29.71875 -20.296875 C 32.050781 -18.097656 33.21875 -14.976562 33.21875 -10.9375 C 33.21875 -6.988281 32.019531 -3.90625 29.625 -1.6875 C 27.226562 0.53125 23.921875 1.640625 19.703125 1.640625 C 15.359375 1.640625 11.929688 0.546875 9.421875 -1.640625 C 6.921875 -3.835938 5.671875 -6.9375 5.671875 -10.9375 Z M 5.671875 -63.015625 C 5.671875 -67.015625 6.878906 -70.113281 9.296875 -72.3125 C 11.710938 -74.507812 15.179688 -75.609375 19.703125 -75.609375 C 24.054688 -75.609375 27.394531 -74.507812 29.71875 -72.3125 C 32.050781 -70.113281 33.21875 -67.015625 33.21875 -63.015625 C 33.21875 -59.054688 32.03125 -55.957031 29.65625 -53.71875 C 27.289062 -51.476562 23.972656 -50.359375 19.703125 -50.359375 C 15.222656 -50.359375 11.765625 -51.476562 9.328125 -53.71875 C 6.890625 -55.957031 5.671875 -59.054688 5.671875 -63.015625 Z M 5.671875 -63.015625 "/></g></g></g></svg>